<svg xmlns="http://www.w3.org/2000/svg" width="512" height="512" viewBox="0 0 512 512" role="img" aria-labelledby="title">
  <title id="title">Voetbal.nl Poule Dashboard — Poule-schild</title>
  <g transform="translate(30.72 0) scale(0.88 1)">
  <path d="M256 12 500 92V258C500 365 374 456 256 500 138 456 12 365 12 258V92Z" fill="#fff"/>
  <path d="M256 40 472 112V258C472 349 360 431 256 470 152 431 40 349 40 258V112Z" fill="#15803d"/>
  <rect x="136" y="322" width="56" height="70" rx="12" fill="#bbf7d0"/>
  <rect x="228" y="291" width="56" height="101" rx="12" fill="#fff"/>
  <rect x="320" y="260" width="56" height="132" rx="12" fill="#86efac"/>
  </g>
  <g transform="translate(256 164) scale(0.9)">
    <circle r="100" fill="#fff"/>
    <g fill="none" stroke="#0f172a" stroke-width="9" stroke-linejoin="round">
      <path d="M0-38 36-12 22 31-22 31-36-12Z" fill="#0f172a"/>
      <path d="M0-38V-99M36-12 95-31M22 31 59 80M-22 31-59 80M-36-12-95-31"/>
    </g>
  </g>
</svg>
